<?xml version="1.0" encoding="UTF-8" standalone="no"?><svg xmlns="http://www.w3.org/2000/svg" xmlns:xlink="http://www.w3.org/1999/xlink" fill="#000000" height="311.1" preserveAspectRatio="xMidYMid meet" version="1" viewBox="-0.4 -0.7 303.6 311.1" width="303.6" zoomAndPan="magnify"><g id="change1_1"><path d="M297.27,149.0788c-1.6962-1.7043-5.7664-2.9258-8.0377-3.5124c-3.068-0.7924-6.2458-1.1758-9.3953-1.4706 c-7.2439-0.678-14.5724-0.9564-21.8386-1.282c-10.6179-0.4759-21.5167,0.9917-32.1415,1.1781 c-10.4508,0.1833-21.8346-1.6543-32.2826-1.5652c-0.2729,0.0023-0.1185-1.8636-0.3913-1.8587 c3.893-1.9026,9.2675-4.2537,13.1087-6.2609c6.8267-3.5671,13.4427-8.3554,20.1522-12.1304 c12.211-6.8704,23.8702-12.2363,31.4314-24.5098c2.5732-4.1769,6.043-9.4224,5.1556-14.4249 c-0.3805-2.1447-1.1236-3.9392-2.25-5.7717c-0.6629-1.0785-3.1468-1.8748-4.3716-2.2639c-1.5501-0.4924-3.2491-0.6102-4.8637-0.4918 c-3.3958,0.249-6.628,1.4086-9.746,2.7092c-2.9972,1.2501-6.1966,2.4101-8.905,4.2242c-5.5103,3.6908-9.5802,6.7331-15.4277,9.9952 c-6.5951,3.6792-13.9865,7.9517-20.1094,12.4984c-3.823,2.8388-9.3397,8.9972-12.9786,12.0679 c0-3.6196,4.1905-8.2459,6.6522-10.8587c4.7668-5.0596,10.8441-10.5929,14.7717-16.337c4.4093-6.4483,9.2521-12.915,13.0901-19.7174 c1.9928-3.5321,3.8137-7.1749,5.9043-10.6492c1.8007-2.9926,3.9303-6.083,4.3995-9.625c0.381-2.8759,0.3779-7.698-1.0196-10.1652 c-1.3352-2.3571-3.0677-5.7057-6.5265-5.4084c-5.2236,0.4489-7.4328,5.8489-9.4891,9.1957 c-1.3795,2.2452-3.5284,4.8489-4.9891,7.0435c-2.2512,3.3821-5.0962,6.8062-7.6304,9.9783 c-4.5705,5.7207-9.1494,11.673-13.6956,17.413c-2.3367,2.9503-5.0379,4.6038-7.3783,7.5505 c-2.1844,2.7504-4.4469,5.4377-6.6434,8.1785c-3.2423,4.0456-6.8458,11.8304-9.1631,16.2602 c0.3141-5.1163,0.5272-12.956,0.9783-18.6848c0.31-3.9371,1.0413-8.3745,0.9783-12.3261c-0.063-3.9516-0.6269-7.6201-1.0761-11.5435 c-0.923-8.0615-2.1039-16.4266-1.8587-24.5543c0.2268-7.517,1.9217-15.1133,0.0617-22.4845 c-1.5079-5.9757-3.8868-12.9562-9.6487-15.7655c-2.4327-1.186-4.8504-4.3917-7.2391-2.9348 c-2.4733,1.5085-5.5614,7.8428-6.7388,10.4277c-1.3534,2.9713-1.8472,5.8745-2.0581,9.1103 c-0.2791,4.2807-0.4048,8.5697-0.4783,12.8584c-0.1467,8.5631,0.8459,17.3446,0.9599,25.908 c0.1286,9.6591,0.227,19.612,0.8804,29.25c0.3889,5.7368,1.2498,15.3281,1.9565,21.0326 c-1.9577-5.1257-7.1889-15.1644-9.6848-20.0544c-4.5329-8.8807-7.8663-16.2326-13.2065-24.6522 c-2.2226-3.5042-4.3418-7.4064-7.4241-10.2014c-3.1345-2.8422-6.5508-5.3595-9.9516-7.8695 c-3.6801-2.7162-10.3788-7.2555-14.7112-8.8313c-5.177-1.8831-11.4986-3.9665-14.3804,2.4457 c-1.9164,4.2641,1.0318,9.449,2.9348,13.3043c3.702,7.5001,11.4657,16.2048,17.5109,21.913 c6.2883,5.9379,11.3639,11.3694,16.2391,18.587c5.1003,7.5508,9.0026,15.3649,13.3044,23.3804 c0.0839,0.1564-1.3559,1.6046-1.2717,1.7609c-6.2778-4.034-13.7229-8.3194-20.25-11.9348 c-7.9195-4.3866-15.1802-7.6247-23.087-12.0326c-7.5803-4.226-14.8731-8.5091-23.1848-11.1522 c-6.7675-2.1521-14.7484-6.4795-21.0326-2.25c-2.8906,1.9454-5.5284,4.2638-5.087,7.8261c0.4846,3.9102,3.5996,9.2003,6.115,12.086 c2.7126,3.1119,6.7148,5.0205,10.5155,6.6966c3.7417,1.6501,8.6859,2.3023,12.5217,3.7174 c8.6475,3.1903,17.2292,6.4542,25.8261,9.7826c8.4817,3.2838,16.4971,6.3661,24.8478,9.9783 c2.7793,1.2022,5.0176,3.153,7.5326,4.8587c0.4202,0.285-0.001,0.9685,0.3865,1.3346c-0.5914,0.095-1.1977,0.201-1.9697,0.2557 c-2.2045,0.1563-4.4149,0.2342-6.6237,0.2989c-11.9098,0.3485-24.1952,1.5625-36.1083,1.4695 c-7.3613-0.0575-14.4899-0.7469-21.8478-0.913c-8.7084-0.1967-17.262-0.7181-25.8644,0.6794 c-5.6574,0.9191-13.8562,2.1116-17.3747,7.1467c-1.3118,1.8771-2.2355,3.9799-1.6304,6.2609 c0.4944,1.8635,3.2955,3.9625,4.9935,4.64c4.866,1.9416,11.26,0.4967,16.3978,0.447c6.4735-0.0626,13.1063,1.3105,19.5652,1.913 c9.7057,0.9055,18.9624,1.0317,28.6957,1.6413c4.6412,0.2907,9.7603,0.6044,14.3804,1.1739 c4.5883,0.5656,8.6978,1.1578,13.3044,1.5652c2.175,0.1924,5.9791,0.8569,8.1566,0.8804 c-3.1843,1.3412-8.1362,4.3639-11.2871,5.7717c-6.7805,3.0295-12.7147,6.7971-18.9783,10.7609 c-6.0341,3.8186-12.6506,7.6493-18.2935,12.0326c-5.291,4.11-10.4936,7.5624-14.2068,13.1978 c-2.5102,3.8097-7.4264,14.0291-3.4018,19.5739c1.7802,2.4526,5.0514,2.2067,7.4166,2.1936 c3.3889-0.0188,6.6201-1.2251,9.6935-2.5389c3.2654-1.3959,5.6083-3.1642,8.8138-4.6928c3.1477-1.5009,7.1235-3.8381,10.0272-5.7717 c2.9169-1.9425,5.5964-3.8685,8.6087-5.6739c3.293-1.9737,6.7563-3.649,10.0761-5.5761c3.3321-1.9343,5.9221-4.9287,9-7.2391 c3.5998-2.7021,9.4515-6.0158,13.0598-8.7065c-1.0272,4.6467-5.6924,7.9754-8.1196,10.4185 c-4.1619,4.1891-8.5299,8.5762-12.0326,13.3533c-4.2928,5.8548-7.9974,11.7536-11.9348,17.8533 c-2.0225,3.1332-4.4966,6.3558-6.3587,9.587c-1.7509,3.0382-4.3279,5.0086-4.8432,8.5388 c-0.4485,3.0727-0.4068,6.3612-0.3294,9.4624c0.0669,2.6808,0.8076,6.7888,2.9226,8.4119c2.1705,1.6658,5.3589,0.9377,8.1024,0.38 c2.818-0.5728,5.2847-2.5002,7.3036-4.4544c2.3483-2.2733,3.3622-5.8825,5.2353-8.5451c2.1545-3.0627,4.3295-6.0486,6.3587-9.1956 c3.5397-5.4897,6.9352-11.136,10.4674-16.6304c3.7995-5.9102,7.3474-12.2978,10.8587-18.3913 c2.8751-4.9893,7.2256-12.2545,9.7826-17.413c1.6378,9.7007-2.5386,32.0278-0.6848,45.9783 c1.1564,8.7019,2.0802,16.7928,2.1732,25.6008c0.086,8.144,1.1201,16.3566,3.7994,24.0764 c1.2287,3.5401,2.8259,6.8967,4.592,10.1956c1.363,2.5461,2.7304,6.3517,5.0876,8.1163c2.1243,1.5901,4.4024,3.4027,6.5544,1.7609 c2.1972-1.6764,3.5764-7.2519,3.9516-9.8619c0.4631-3.2229,0.5174-6.4935,0.9073-9.7265c0.5317-4.4083,1.3406-8.7791,2.0598-13.159 c0.7167-4.364,1.3724-8.7492,1.6824-13.1635c0.311-4.4282-0.7821-9.6193-0.6771-14.0564 c0.2376-10.0384,0.8324-19.5288-0.0978-29.5435c-0.3971-4.2748-1.2505-12.2026-1.9565-16.4348 c2.4456,2.9348,5.1736,10.7488,6.9456,14.2826c4.5637,9.101,9.7782,17.5208,15.3587,26.0217 c2.1028,3.2033,3.5643,6.4526,6.6147,8.7816c3.1712,2.4213,6.6038,4.4655,9.9786,6.5839c3.8201,2.398,7.2403,5.4398,11.3848,7.2797 c4.5256,2.0091,15.2278,7.9514,16.9242,0.6373c1.1107-4.7893-3.0091-12.1902-5.2826-16.1413 c-4.4537-7.7401-10.0366-15.2719-15.2609-22.5c-5.8151-8.0455-12.5065-15.6797-18.3913-23.6739 c-3.7105-5.0406-7.3301-10.7926-10.4674-16.2391c0.4173,0.1579,2.8292-0.4884,3.2283-0.2935 c2.1801,1.0652,5.1171,2.6801,7.1413,4.0109c5.8436,3.8417,10.6344,7.4895,16.5326,11.25 c6.7243,4.2871,12.6578,9.0776,20.0824,12.0208c7.0564,2.7971,14.3917,4.9025,21.8292,6.4066 c3.0936,0.6256,6.2225,1.1943,9.3622,1.533c2.9241,0.3154,8.3973,0.7835,10.9435-0.8843 c5.0636-3.3167,5.2663-11.5058,0.0978-15.6522c-2.4409-1.9581-32.8577-15.421-40.1087-19.0761 c-8.4402-4.2545-17.8368-7.4733-26.413-11.4456c-4.1757-1.9342-7.8545-4.9869-11.9268-7.2656 c2.9646-0.1172,5.929-0.2885,8.8879-0.4219c7.2567-0.327,14.756-1.5903,22.0171-1.8017c7.0354-0.2048,13.5576-0.8251,20.5435,0.1956 c9.0845,1.3274,20.6089,3.6589,29.8369,2.837c7.3546-0.655,17.0018-2.65,22.8913-7.4348 C299.5347,158.1405,301.2701,153.0982,297.27,149.0788z M297.27,149.0788c-1.6962-1.7043-5.7664-2.9258-8.0377-3.5124 c-3.068-0.7924-6.2458-1.1758-9.3953-1.4706c-7.2439-0.678-14.5724-0.9564-21.8386-1.282 c-10.6179-0.4759-21.5167,0.9917-32.1415,1.1781c-10.4508,0.1833-21.8346-1.6543-32.2826-1.5652 c-0.2729,0.0023-0.1185-1.8636-0.3913-1.8587c3.893-1.9026,9.2675-4.2537,13.1087-6.2609 c6.8267-3.5671,13.4427-8.3554,20.1522-12.1304c12.211-6.8704,23.8702-12.2363,31.4314-24.5098 c2.5732-4.1769,6.043-9.4224,5.1556-14.4249c-0.3805-2.1447-1.1236-3.9392-2.25-5.7717c-0.6629-1.0785-3.1468-1.8748-4.3716-2.2639 c-1.5501-0.4924-3.2491-0.6102-4.8637-0.4918c-3.3958,0.249-6.628,1.4086-9.746,2.7092c-2.9972,1.2501-6.1966,2.4101-8.905,4.2242 c-5.5103,3.6908-9.5802,6.7331-15.4277,9.9952c-6.5951,3.6792-13.9865,7.9517-20.1094,12.4984 c-3.823,2.8388-9.3397,8.9972-12.9786,12.0679c0-3.6196,4.1905-8.2459,6.6522-10.8587c4.7668-5.0596,10.8441-10.5929,14.7717-16.337 c4.4093-6.4483,9.2521-12.915,13.0901-19.7174c1.9928-3.5321,3.8137-7.1749,5.9043-10.6492c1.8007-2.9926,3.9303-6.083,4.3995-9.625 c0.381-2.8759,0.3779-7.698-1.0196-10.1652c-1.3352-2.3571-3.0677-5.7057-6.5265-5.4084c-5.2236,0.4489-7.4328,5.8489-9.4891,9.1957 c-1.3795,2.2452-3.5284,4.8489-4.9891,7.0435c-2.2512,3.3821-5.0962,6.8062-7.6304,9.9783 c-4.5705,5.7207-9.1494,11.673-13.6956,17.413c-2.3367,2.9503-5.0379,4.6038-7.3783,7.5505 c-2.1844,2.7504-4.4469,5.4377-6.6434,8.1785c-3.2423,4.0456-6.8458,11.8304-9.1631,16.2602 c0.3141-5.1163,0.5272-12.956,0.9783-18.6848c0.31-3.9371,1.0413-8.3745,0.9783-12.3261c-0.063-3.9516-0.6269-7.6201-1.0761-11.5435 c-0.923-8.0615-2.1039-16.4266-1.8587-24.5543c0.2268-7.517,1.9217-15.1133,0.0617-22.4845 c-1.5079-5.9757-3.8868-12.9562-9.6487-15.7655c-2.4327-1.186-4.8504-4.3917-7.2391-2.9348 c-2.4733,1.5085-5.5614,7.8428-6.7388,10.4277c-1.3534,2.9713-1.8472,5.8745-2.0581,9.1103 c-0.2791,4.2807-0.4048,8.5697-0.4783,12.8584c-0.1467,8.5631,0.8459,17.3446,0.9599,25.908 c0.1286,9.6591,0.227,19.612,0.8804,29.25c0.3889,5.7368,1.2498,15.3281,1.9565,21.0326 c-1.9577-5.1257-7.1889-15.1644-9.6848-20.0544c-4.5329-8.8807-7.8663-16.2326-13.2065-24.6522 c-2.2226-3.5042-4.3418-7.4064-7.4241-10.2014c-3.1345-2.8422-6.5508-5.3595-9.9516-7.8695 c-3.6801-2.7162-10.3788-7.2555-14.7112-8.8313c-5.177-1.8831-11.4986-3.9665-14.3804,2.4457 c-1.9164,4.2641,1.0318,9.449,2.9348,13.3043c3.702,7.5001,11.4657,16.2048,17.5109,21.913 c6.2883,5.9379,11.3639,11.3694,16.2391,18.587c5.1003,7.5508,9.0026,15.3649,13.3044,23.3804 c0.0839,0.1564-1.3559,1.6046-1.2717,1.7609c-6.2778-4.034-13.7229-8.3194-20.25-11.9348 c-7.9195-4.3866-15.1802-7.6247-23.087-12.0326c-7.5803-4.226-14.8731-8.5091-23.1848-11.1522 c-6.7675-2.1521-14.7484-6.4795-21.0326-2.25c-2.8906,1.9454-5.5284,4.2638-5.087,7.8261c0.4846,3.9102,3.5996,9.2003,6.115,12.086 c2.7126,3.1119,6.7148,5.0205,10.5155,6.6966c3.7417,1.6501,8.6859,2.3023,12.5217,3.7174 c8.6475,3.1903,17.2292,6.4542,25.8261,9.7826c8.4817,3.2838,16.4971,6.3661,24.8478,9.9783 c2.7793,1.2022,5.0176,3.153,7.5326,4.8587c0.4202,0.285-0.001,0.9685,0.3865,1.3346c-0.5914,0.095-1.1977,0.201-1.9697,0.2557 c-2.2045,0.1563-4.4149,0.2342-6.6237,0.2989c-11.9098,0.3485-24.1952,1.5625-36.1083,1.4695 c-7.3613-0.0575-14.4899-0.7469-21.8478-0.913c-8.7084-0.1967-17.262-0.7181-25.8644,0.6794 c-5.6574,0.9191-13.8562,2.1116-17.3747,7.1467c-1.3118,1.8771-2.2355,3.9799-1.6304,6.2609 c0.4944,1.8635,3.2955,3.9625,4.9935,4.64c4.866,1.9416,11.26,0.4967,16.3978,0.447c6.4735-0.0626,13.1063,1.3105,19.5652,1.913 c9.7057,0.9055,18.9624,1.0317,28.6957,1.6413c4.6412,0.2907,9.7603,0.6044,14.3804,1.1739 c4.5883,0.5656,8.6978,1.1578,13.3044,1.5652c2.175,0.1924,5.9791,0.8569,8.1566,0.8804 c-3.1843,1.3412-8.1362,4.3639-11.2871,5.7717c-6.7805,3.0295-12.7147,6.7971-18.9783,10.7609 c-6.0341,3.8186-12.6506,7.6493-18.2935,12.0326c-5.291,4.11-10.4936,7.5624-14.2068,13.1978 c-2.5102,3.8097-7.4264,14.0291-3.4018,19.5739c1.7802,2.4526,5.0514,2.2067,7.4166,2.1936 c3.3889-0.0188,6.6201-1.2251,9.6935-2.5389c3.2654-1.3959,5.6083-3.1642,8.8138-4.6928c3.1477-1.5009,7.1235-3.8381,10.0272-5.7717 c2.9169-1.9425,5.5964-3.8685,8.6087-5.6739c3.293-1.9737,6.7563-3.649,10.0761-5.5761c3.3321-1.9343,5.9221-4.9287,9-7.2391 c3.5998-2.7021,9.4515-6.0158,13.0598-8.7065c-1.0272,4.6467-5.6924,7.9754-8.1196,10.4185 c-4.1619,4.1891-8.5299,8.5762-12.0326,13.3533c-4.2928,5.8548-7.9974,11.7536-11.9348,17.8533 c-2.0225,3.1332-4.4966,6.3558-6.3587,9.587c-1.7509,3.0382-4.3279,5.0086-4.8432,8.5388 c-0.4485,3.0727-0.4068,6.3612-0.3294,9.4624c0.0669,2.6808,0.8076,6.7888,2.9226,8.4119c2.1705,1.6658,5.3589,0.9377,8.1024,0.38 c2.818-0.5728,5.2847-2.5002,7.3036-4.4544c2.3483-2.2733,3.3622-5.8825,5.2353-8.5451c2.1545-3.0627,4.3295-6.0486,6.3587-9.1956 c3.5397-5.4897,6.9352-11.136,10.4674-16.6304c3.7995-5.9102,7.3474-12.2978,10.8587-18.3913 c2.8751-4.9893,7.2256-12.2545,9.7826-17.413c1.6378,9.7007-2.5386,32.0278-0.6848,45.9783 c1.1564,8.7019,2.0802,16.7928,2.1732,25.6008c0.086,8.144,1.1201,16.3566,3.7994,24.0764 c1.2287,3.5401,2.8259,6.8967,4.592,10.1956c1.363,2.5461,2.7304,6.3517,5.0876,8.1163c2.1243,1.5901,4.4024,3.4027,6.5544,1.7609 c2.1972-1.6764,3.5764-7.2519,3.9516-9.8619c0.4631-3.2229,0.5174-6.4935,0.9073-9.7265c0.5317-4.4083,1.3406-8.7791,2.0598-13.159 c0.7167-4.364,1.3724-8.7492,1.6824-13.1635c0.311-4.4282-0.7821-9.6193-0.6771-14.0564 c0.2376-10.0384,0.8324-19.5288-0.0978-29.5435c-0.3971-4.2748-1.2505-12.2026-1.9565-16.4348 c2.4456,2.9348,5.1736,10.7488,6.9456,14.2826c4.5637,9.101,9.7782,17.5208,15.3587,26.0217 c2.1028,3.2033,3.5643,6.4526,6.6147,8.7816c3.1712,2.4213,6.6038,4.4655,9.9786,6.5839c3.8201,2.398,7.2403,5.4398,11.3848,7.2797 c4.5256,2.0091,15.2278,7.9514,16.9242,0.6373c1.1107-4.7893-3.0091-12.1902-5.2826-16.1413 c-4.4537-7.7401-10.0366-15.2719-15.2609-22.5c-5.8151-8.0455-12.5065-15.6797-18.3913-23.6739 c-3.7105-5.0406-7.3301-10.7926-10.4674-16.2391c0.4173,0.1579,2.8292-0.4884,3.2283-0.2935 c2.1801,1.0652,5.1171,2.6801,7.1413,4.0109c5.8436,3.8417,10.6344,7.4895,16.5326,11.25 c6.7243,4.2871,12.6578,9.0776,20.0824,12.0208c7.0564,2.7971,14.3917,4.9025,21.8292,6.4066 c3.0936,0.6256,6.2225,1.1943,9.3622,1.533c2.9241,0.3154,8.3973,0.7835,10.9435-0.8843 c5.0636-3.3167,5.2663-11.5058,0.0978-15.6522c-2.4409-1.9581-32.8577-15.421-40.1087-19.0761 c-8.4402-4.2545-17.8368-7.4733-26.413-11.4456c-4.1757-1.9342-7.8545-4.9869-11.9268-7.2656 c2.9646-0.1172,5.929-0.2885,8.8879-0.4219c7.2567-0.327,14.756-1.5903,22.0171-1.8017c7.0354-0.2048,13.5576-0.8251,20.5435,0.1956 c9.0845,1.3274,20.6089,3.6589,29.8369,2.837c7.3546-0.655,17.0018-2.65,22.8913-7.4348 C299.5347,158.1405,301.2701,153.0982,297.27,149.0788z" fill="#ffd200"/></g><g id="change2_1"><path d="M167.3754,142.0342c4.4969,9.4169,0.3909,19.3797-6.5803,25.0379 c-6.9712,5.6582-29.2425,5.4851-30.2208-12.1283c-0.9783-17.6133,15.6506-20.9338,19.8284-22.2278 C159.6717,129.8451,162.8785,132.6172,167.3754,142.0342z M167.3754,142.0342c4.4969,9.4169,0.3909,19.3797-6.5803,25.0379 c-6.9712,5.6582-29.2425,5.4851-30.2208-12.1283c-0.9783-17.6133,15.6506-20.9338,19.8284-22.2278 C159.6717,129.8451,162.8785,132.6172,167.3754,142.0342z" fill="#ff7134"/></g><g id="change3_1"><path d="M299.0476,148.5486c-1.7352-1.7435-4.2991-2.5976-6.6227-3.1977c-3.1385-0.8106-6.3894-1.2029-9.6113-1.5044 c-7.4105-0.6936-14.9075-0.9784-22.3408-1.3115c-10.862-0.4868-21.7242-0.5037-32.5932-0.313 c-10.6912,0.1876-21.3168-1.411-32.0051-1.3199c-0.2792,0.0024-0.5576,0.0211-0.8367,0.0261 c3.9825-1.9464,7.9827-3.8574,11.9122-5.9106c6.9837-3.6492,13.6122-7.8998,20.476-11.7616 c12.4918-7.0284,25.1859-14.3504,32.9209-26.9061c2.6323-4.2729,4.8491-9.4861,3.9413-14.6036 c-0.3892-2.194-1.617-4.2053-2.7693-6.0799c-0.6782-1.1033-1.4187-1.8955-2.6718-2.2936c-1.5858-0.5037-3.3238-0.6242-4.9756-0.5031 c-3.4739,0.2548-6.7804,1.441-9.9701,2.7715c-3.0661,1.2788-6.3391,2.4655-9.1098,4.3214 c-5.637,3.7757-9.8005,6.8879-15.7825,10.225c-6.7468,3.7638-14.3082,8.1346-20.5718,12.7858 c-3.9109,2.9041-7.6321,6.0469-11.3548,9.1883c2.408-2.7609,4.9017-5.4507,7.42-8.1237 c4.8764-5.1759,9.3513-10.4536,13.3692-16.3297c4.5107-6.5966,8.67-13.4226,12.5963-20.3814 c2.0386-3.6133,3.9014-7.3398,6.0401-10.8941c1.8421-3.0614,4.0207-6.2228,4.5007-9.8463c0.3897-2.9421,0.3866-7.875-1.0431-10.3989 c-1.3659-2.4113-3.5217-4.5-7.0601-4.1959c-5.3437,0.4592-8.7392,4.1166-10.8428,7.5403c-1.4113,2.2969-2.6452,4.71-4.1395,6.955 c-2.303,3.4599-4.965,6.7253-7.5576,9.9703c-4.6756,5.8523-9.5919,11.5082-14.2426,17.3803 c-2.3904,3.0182-4.6155,6.1607-7.0096,9.1752c-2.2347,2.8137-4.5492,5.5627-6.7962,8.3665 c-3.3168,4.1387-5.9178,8.4605-8.2884,12.9921c0.3213-5.2339,0.5496-10.1307,1.011-15.9912 c0.3171-4.0276,0.6142-8.0822,0.5497-12.1247c-0.0645-4.0424-0.4745-8.0695-0.934-12.0831 c-0.9442-8.2469-1.7951-16.3813-1.5443-24.6959c0.2321-7.6899,0.7973-15.5758-1.1055-23.1166 c-1.5425-6.1131-5.0819-12.4642-10.9763-15.338c-2.4886-1.2133-5.2332-1.5-7.6768-0.0096 c-2.5302,1.5432-4.3124,4.2405-5.5168,6.8848c-1.3845,3.0396-1.8896,6.0096-2.1054,9.3198 c-0.2855,4.3791-0.4141,8.7668-0.4893,13.1541c-0.15,8.76-0.4072,17.5463-0.2905,26.3066 c0.1315,9.8812,0.3947,19.8534,1.0631,29.713c0.3979,5.8687,1.1621,11.6998,1.8851,17.5355 c-2.0027-5.2436-4.1151-10.4427-6.6684-15.4452c-4.6372-9.085-9.7402-18.0907-15.2032-26.7039 c-2.2737-3.5848-4.7612-6.7747-7.9145-9.6339c-3.2065-2.9075-6.7015-5.4827-10.1804-8.0504 c-3.7647-2.7786-7.0937-5.7415-11.5257-7.3536c-5.2961-1.9264-15.0717-3.7003-18.0198,2.8593 c-1.9604,4.3621,0.2674,9.6661,2.2142,13.6101c3.7872,7.6726,9.2086,14.0642,15.3928,19.9037 c6.4329,6.0744,12.9258,11.8436,17.9131,19.2271c5.2176,7.7245,9.4096,16.0837,13.8103,24.2836 c0.0859,0.16,0.1759,0.3177,0.262,0.4776c-6.4222-4.1267-12.9991-8.0121-19.6763-11.7106 c-8.1016-4.4875-16.4348-8.5298-24.5234-13.0391c-7.7546-4.3232-15.5439-8.8079-24.0467-11.5118 c-6.9231-2.2015-14.8947-3.478-21.3234,0.8488c-2.957,1.9902-4.7819,4.931-4.3303,8.5751 c0.4957,4.0001,2.8411,7.2474,5.4144,10.1994c2.775,3.1834,5.7224,5.7897,9.6104,7.5043c3.8278,1.688,7.7347,3.1917,11.6587,4.6393 c8.8464,3.2637,17.7776,6.286,26.5721,9.691c8.6768,3.3593,17.4991,6.4015,26.0419,10.0967 c2.8432,1.2299,5.751,2.5066,8.3239,4.2515c0.4299,0.2915,0.9038,0.6472,1.3002,1.0216c-0.605,0.0972-1.2253,0.2056-2.015,0.2616 c-2.2552,0.1599-4.5164,0.2396-6.7761,0.3058c-12.1837,0.3565-24.3845,0.2676-36.5715,0.1725 c-7.5306-0.0588-15.0408-0.5266-22.5679-0.6965c-8.9086-0.2012-17.8084,0.3586-26.6086,1.7883 c-5.7875,0.9402-13.033,2.3772-16.6324,7.528c-1.3419,1.9203-2.2499,4.8505-1.6309,7.1839 c0.5057,1.9063,2.1924,3.0576,3.9294,3.7506c4.9779,1.9862,11.0071,1.6629,16.2631,1.612 c6.6223-0.0641,13.3802,1.2811,19.9877,1.8975c9.9288,0.9263,19.5276,0.9898,29.4846,1.6134 c4.7479,0.2974,9.4636,0.522,14.19,1.1046c4.6938,0.5786,9.373,1.2885,14.0856,1.7053c2.225,0.1968,4.4526,0.3108,6.6801,0.3349 c-3.2576,1.372-6.5558,2.6569-9.7791,4.097c-6.9365,3.0992-13.3296,7.0319-19.7372,11.0869 c-6.1729,3.9064-12.2888,7.9264-18.0615,12.4105c-5.4127,4.2045-10.7125,8.8925-14.5112,14.6575 c-2.5679,3.8973-6.6642,13.5133-2.5471,19.1856c1.8211,2.509,4.2345,3.0958,6.6541,3.0825 c3.4669-0.0192,6.7723-1.2533,9.9164-2.5973c3.3405-1.428,6.699-2.8668,9.9781-4.4305c3.22-1.5354,6.351-3.2598,9.3214-5.2379 c2.984-1.9872,5.7875-4.1878,8.8691-6.0348c3.3688-2.0191,6.8539-3.8342,10.2501-5.8057c3.4087-1.9788,6.5724-4.2213,9.7211-6.5848 c3.6826-2.7643,7.3754-5.5148,11.0666-8.2675c-2.3283,2.6334-4.7676,5.1722-7.2506,7.6714 c-4.2576,4.2855-8.6596,8.488-12.2429,13.3749c-4.3915,5.9894-8.6489,12.1047-12.6768,18.3445 c-2.069,3.2053-4.0653,6.4575-5.9703,9.7629c-1.7912,3.1081-3.8673,6.1945-4.3945,9.8059c-0.4589,3.1434-0.4161,6.5075-0.337,9.6799 c0.0685,2.7425,1.3533,5.1317,3.517,6.7922c2.2204,1.7041,4.955,2.7724,7.7616,2.2019c2.8828-0.5859,5.4063-2.5577,7.4716-4.5569 c2.4023-2.3255,4.3239-5.066,6.2401-7.7899c2.204-3.1332,4.3339-6.3179,6.4098-9.5374c3.6211-5.6159,7.0552-11.3495,10.6686-16.9703 c3.8869-6.0461,7.9243-11.9605,11.5163-18.1941c2.9412-5.104,5.6846-10.3175,8.3004-15.5947 c-1.3638,14.2547-2.8794,28.5433-0.9829,42.8145c1.183,8.902,2.96,17.697,3.0551,26.7076 c0.088,8.3313,1.1458,16.7327,3.8868,24.6301c1.257,3.6215,2.8909,7.0552,4.6976,10.4301c1.3943,2.6046,2.9219,5.417,5.3333,7.2221 c2.1731,1.6267,5.021,1.7838,7.2224,0.1042c2.2477-1.7149,3.0126-4.6407,3.3963-7.3107c0.4738-3.297,0.5293-6.6428,0.9282-9.9502 c0.5439-4.5096,1.3714-8.981,2.1072-13.4616c0.7332-4.4643,1.4039-8.9504,1.7211-13.4662c0.3182-4.53,0.2813-9.0935,0.3887-13.6326 c0.243-10.2692,0.7439-20.6891-0.2077-30.934c-0.4062-4.3731-1.105-8.7061-1.8273-13.0355 c1.2743,3.8202,2.673,7.5927,4.4858,11.2077c4.6686,9.3103,10.4983,18.1741,16.2072,26.8705 c2.1511,3.2769,4.6226,5.9409,7.7431,8.3234c3.2441,2.477,6.7557,4.5682,10.208,6.7354c3.9079,2.4532,7.4068,5.5649,11.6465,7.4471 c4.6296,2.0553,15.2239,5.3733,16.9593-2.109c1.1363-4.8995-2.0781-10.4906-4.4039-14.5325 c-4.5562-7.9181-10.1672-15.3135-15.5117-22.7078c-5.9488-8.2305-12.0481-16.3496-18.0682-24.5276 c-3.7958-5.1565-7.9346-10.3044-11.144-15.8762c0.4269,0.1615,0.8444,0.3499,1.2526,0.5493 c2.2302,1.0897,4.3277,2.457,6.3985,3.8184c5.978,3.9301,11.7972,8.0936,17.831,11.9405 c6.879,4.3857,13.9313,8.3342,21.5266,11.3451c7.2186,2.8615,14.7226,5.0153,22.3311,6.5539 c3.1647,0.64,6.3656,1.2218,9.5775,1.5682c2.9913,0.3226,6.3071,0.2562,8.9119-1.45c5.1801-3.3929,7.3168-12.8159,2.0295-17.0576 c-2.497-2.0032-33.1609-15.0696-40.5787-18.8087c-8.6343-4.3524-17.6459-7.9648-26.4193-12.0286 c-4.2717-1.9786-8.7347-3.8971-12.9006-6.2281c3.0327-0.1199,6.0654-0.2952,9.0923-0.4316 c7.4235-0.3345,14.848-0.6602,22.2761-0.8764c7.1972-0.2095,14.3804-0.4869,21.5269,0.5573 c9.2935,1.358,18.5391,3.297,27.9794,2.4562c7.5237-0.6701,15.8846-2.2029,21.9095-7.0978 C299.176,159.6,303.1397,152.6603,299.0476,148.5486z M295.1678,158.7894c-4.7683,5.2875-13.0575,6.9134-19.7974,7.6736 c-9.1108,1.0276-17.9648-0.4803-26.9462-1.8784c-3.7965-0.5909-7.6074-1.1349-11.4562-1.1576 c-3.1207-0.0184-6.2418,0.0323-9.3615,0.1051c-12.6332,0.2947-25.2453,1.0818-37.8737,1.4848 c-0.6761,0.0215-1.3524,0.0412-2.0288,0.045c-1.563,0.0089-1.9412,1.9773-0.7571,2.7952c4.3287,2.9901,9.293,5.168,14.0322,7.4057 c7.3347,3.4632,14.7548,6.7449,22.175,10.0196c7.4871,3.3042,14.6281,7.2702,21.7649,11.2605 c3.4012,1.9016,6.8037,3.8041,10.2686,5.5881c2.9609,1.5245,5.7915,3.0295,9.1202,3.4989c2.7317,0.3852,6.1213,0.3831,7.6386,3.1078 c1.6544,2.9709,0.5127,7.2137-1.6226,9.6636c-2.05,2.352-5.2772,2.4161-8.1571,2.147c-3.2446-0.3031-6.4859-0.9418-9.6745-1.599 c-7.1056-1.4644-14.1144-3.4622-20.885-6.0742c-7.5374-2.9078-14.5248-6.8139-21.3342-11.1342 c-6.5165-4.1345-12.7654-8.6663-19.2446-12.8552c-2.0375-1.3172-4.1124-2.6364-6.3407-3.611 c-1.4451-0.6321-3.2064-1.3016-4.7861-0.756c-0.8168,0.2821-1.203,1.002-1.0477,1.8452c0.2766,1.5004,1.4226,3.0038,2.2259,4.2524 c1.6589,2.5783,3.4437,5.0767,5.2321,7.5659c5.3499,7.4468,10.8753,14.7659,16.3168,22.1456 c5.5333,7.5042,11.0154,15.0511,16.2961,22.7361c3.8099,5.5444,8.3505,11.5167,9.925,18.1943 c0.2025,0.8588,0.329,1.7234,0.2875,2.6082c-0.0215,0.4592-0.1926,1.1944-0.3438,1.4825c-0.4776,0.9099-1.0377,1.2048-2.1697,1.4902 c-2.5249,0.6365-5.924-0.3409-8.5717-1.3204c-3.5255-1.3041-6.0632-3.2734-8.9396-5.2834 c-6.1718-4.3126-13.3884-7.5668-18.5206-13.2114c-1.3897-1.5284-2.4537-3.3061-3.5777-5.0313 c-1.345-2.0645-2.6746-4.1389-3.9868-6.2244c-2.7088-4.305-5.3442-8.6567-7.8796-13.0663 c-2.3855-4.149-4.5823-8.3055-6.2491-12.8015c-1.6128-4.3502-2.9056-8.8086-4.3306-13.2216 c-0.6939-2.1489-1.4247-4.2846-2.2277-6.3953c-0.5526-1.4527-3.1012-1.4203-2.9464,0.3987 c0.7047,8.2806,2.5042,16.4058,3.6008,24.6339c1.1475,8.6089,1.0681,17.3096,0.9326,25.9771 c-0.1356,8.6752,0.0345,17.4992-0.8436,26.1351c-0.8565,8.4237-2.7728,16.697-3.7026,25.1115 c-0.3371,3.0504-0.3074,6.1787-0.8801,9.198c-0.3954,2.0848-1.3639,5.4706-4.1328,5.176c-2.5349-0.2698-4.2772-3.7104-5.37-5.6434 c-1.7531-3.1007-3.3727-6.2933-4.629-9.6294c-2.7891-7.4063-4.0372-15.272-4.2805-23.1602 c-0.13-4.2135-0.2242-8.3746-0.7275-12.5675c-0.507-4.2239-1.2034-8.4214-1.8375-12.6273 c-0.7404-4.9116-1.3744-9.8464-1.4781-14.8182c-0.0887-4.2587,0.0767-8.5222,0.3347-12.7725 c0.5467-9.0074,1.5791-17.9748,2.3241-26.966c0.1205-1.4537-2.1722-2.0866-2.7952-0.7571 c-5.7382,12.2455-12.106,24.2206-19.6298,35.4709c-7.2,10.7659-13.6494,22.0147-21.1282,32.5968 c-1.8434,2.6084-3.7158,5.175-6.097,7.3271c-1.8751,1.6947-4.5801,3.7275-7.2828,3.1494c-2.3995-0.5133-4.9458-2.4147-5.5282-4.8702 c-0.321-1.3539-0.1047-2.8099-0.1022-4.1901c0.0031-1.6242-0.0294-3.2507,0.0852-4.8722c0.2582-3.6507,2.1243-6.5333,3.9037-9.6389 c1.8127-3.1639,3.708-6.28,5.6729-9.3517c3.7336-5.8371,7.7183-11.5072,11.7476-17.1426c3.8107-5.3298,8.3365-9.8996,12.947-14.533 c5.4217-5.4485,10.6365-11.0724,15.0122-17.4125c0.8231-1.1927-0.8541-2.9559-2.0523-2.0523 c-5.6428,4.2556-11.3212,8.4638-16.982,12.6953c-2.6718,1.9972-5.2912,4.0914-8.0594,5.9543 c-2.7342,1.84-5.6096,3.4561-8.4888,5.0551c-2.9604,1.6442-5.936,3.2692-8.7845,5.1039c-2.7902,1.7971-5.3693,3.8885-8.1845,5.6505 c-5.7506,3.5992-12.0973,6.3708-18.3726,8.9198c-3.0891,1.2548-6.5261,2.3972-9.8918,1.7247 c-0.3392-0.0677-0.6849-0.1555-1.0136-0.259c0.0653,0.0206,0.4351,0.5043,0.1559,0.2597 c-5.3476-4.6837-1.4427-12.6268,0.5946-16.1308c3.1687-5.4498,8.0019-9.8898,12.8474-13.8288 c5.5581-4.5182,11.5504-8.4937,17.5794-12.3489c6.6604-4.259,13.3126-8.5011,20.5145-11.7983 c5.8652-2.6852,12.0067-4.7877,17.7439-7.7485c1.2712-0.6561,0.7349-2.9491-0.7571-2.7952 c-9.4166,0.9713-18.7042-0.526-28.028-1.6844c-9.3372-1.1602-18.7597-1.3517-28.1155-2.4072 c-8.5471-0.9642-17.1749-2.3251-25.7911-2.3716c-5.8308-0.0314-11.6656,0.3284-17.4937,0.0116 c-2.4523-0.1332-4.9948-0.3304-7.3334-1.1374c-1.5185-0.524-2.5792-1.2178-2.5471-2.6449 c0.1356-6.0107,6.7997-8.2439,11.6643-9.3936c7.9316-1.8746,16.3638-2.5345,24.4953-2.6143 c8.3904-0.0823,16.7563,0.6335,25.1423,0.7136c11.7433,0.1121,23.4927,0.1769,35.2351-0.0371 c4.397-0.0801,8.8391-0.1019,13.2164-0.5687c0.9746-0.1039,2.2665-0.1265,3.1249-0.6884c1.5839-1.0367,0.5374-3.0702-0.4252-4.1456 c-1.5749-1.7595-3.8798-2.9327-5.9546-3.98c-3.2744-1.6529-6.6826-3.046-10.0874-4.4039 c-8.5594-3.4135-17.2078-6.6405-25.8358-9.8763c-8.6235-3.2341-17.371-6.1306-25.9691-9.4329 c-3.5158-1.3504-7.418-2.5815-10.5625-4.6996c-1.6779-1.1302-3.1205-2.5919-4.4789-4.0806 c-1.4038-1.5384-2.8228-3.1031-3.873-4.9111c-1.9091-3.2863-2.7171-7.1539,0.5524-9.8141c2.5918-2.1087,6.2513-2.9958,9.5356-3.0136 c3.8137-0.0207,7.755,1.1877,11.3315,2.4089c4.168,1.423,8.1613,3.2949,12.0672,5.3193 c7.7569,4.0204,15.3243,8.3874,23.0911,12.3947c8.431,4.3499,16.7369,8.9523,24.8417,13.8849 c3.8063,2.3165,7.5642,4.7115,11.2609,7.1993c1.2911,0.8688,2.7538-0.8079,2.0523-2.0523 c-4.2885-7.6073-8.1424-15.4533-12.558-22.9901c-4.3338-7.3971-9.2691-14.0928-15.4632-20.0406 c-5.9937-5.7553-12.6221-11.0879-17.3895-17.9728c-2.1209-3.0629-4.0854-6.3082-5.5936-9.7206 c-0.908-2.0546-1.7265-4.3236-1.8019-6.5921c-0.0264-0.7922,0.0211-1.4348,0.235-2.1759c0.1331-0.4614,0.4796-1.1129,0.7007-1.3812 c0.7888-0.9576,1.752-1.3895,2.9925-1.6926c2.8554-0.6978,6.2421-0.1351,9.1528,0.7094c1.4719,0.427,2.8456,0.9302,4.1849,1.6005 c1.8032,0.9025,2.7848,1.7789,4.3235,2.9551c6.3318,4.8399,13.4485,9.2327,18.4108,15.5914 c2.8344,3.632,5.1046,7.8251,7.4133,11.8013c2.502,4.309,4.8997,8.6772,7.3066,13.0396c2.2601,4.0965,4.4389,8.1948,6.3021,12.4908 c1.8624,4.2939,3.5038,8.6807,5.142,13.0637c0.7877,2.1075,1.5742,4.2155,2.379,6.3166c0.5554,1.4497,3.0989,1.4229,2.9465-0.3987 c-0.6843-8.1732-1.9667-16.2799-2.7567-24.4418c-0.7965-8.2303-0.8899-16.5392-1.1933-24.7996 c-0.3076-8.3732-0.1945-16.7106-0.0952-25.0851c0.0994-8.3794,0.0978-16.7689,0.699-25.1318 c0.2123-2.954,1.0092-5.7315,2.4799-8.3165c1.1667-2.0506,3.1055-4.8036,5.7615-4.754c2.8039,0.0524,5.3685,2.398,7.1362,4.3469 c2.1795,2.4028,3.5892,5.3041,4.521,8.395c2.1111,7.0024,1.7151,14.4628,1.4695,21.6809 c-0.2684,7.8911,0.1653,15.6044,1.084,23.4442c0.5164,4.4063,1.0618,8.816,1.2584,13.251c0.1911,4.3094-0.0611,8.6196-0.377,12.9174 c-0.6451,8.7784-1.7145,17.5193-2.4677,26.2885c-0.1089,0.2921-0.1301,0.5755-0.0765,0.8359 c-0.004,0.0479-0.0092,0.0956-0.0131,0.1434c-0.1597,1.924,2.8412,1.9135,3,0l0.8864-2.0793c0-0.0001,0-0.0001,0-0.0002 c2.7147-5.8417,5.2714-11.4008,9.2868-16.5597c3.7751-4.8501,7.8411-9.4697,11.4934-14.416 c4.0962-5.5475,8.5265-10.8184,12.926-16.125c2.4904-3.004,4.96-6.0258,7.361-9.102c2.1815-2.7951,4.476-5.5854,6.3658-8.5897 c1.3757-2.1871,2.5831-4.4758,3.9483-6.6697c1.2505-2.0095,2.6569-4.3782,4.7016-5.6819c1.8828-1.2004,3.5144,0.4204,4.7543,1.8402 c1.8433,2.1107,3.4725,5.0638,3.7645,7.8928c0.345,3.3434-2.0126,6.6179-3.6586,9.3265c-1.9412,3.1942-3.6429,6.5276-5.4614,9.7925 c-3.7689,6.7668-7.7357,13.4242-12.0314,19.871c-2.2383,3.3593-4.4933,6.7461-7.0624,9.8644 c-2.2683,2.7534-4.7142,5.3547-7.1588,7.9506c-5.8245,6.1852-11.543,12.4343-16.376,19.4446 c-0.8215,1.1916,0.8552,2.9598,2.0523,2.0522c6.1201-4.6393,11.8518-9.7536,17.8264-14.5734 c2.7669-2.2321,5.5351-4.361,8.7078-5.9886c2.9491-1.5128,6.0405-2.7174,9.0906-4.0057c3.0185-1.275,6.0323-2.6166,8.7834-4.4128 c2.6149-1.7073,4.8932-3.8405,7.1323-6.0023c2.3082-2.2286,4.6133-4.5159,7.387-6.1683c2.7219-1.6216,5.8672-2.8049,8.811-3.9641 c3.0346-1.1951,6.3146-2.3094,9.6219-2.108c0.7118,0.0433,1.6447,0.1021,2.3091,0.418c0.5445,0.2589,0.7762,0.7315,1.0831,1.2651 c0.5377,0.9351,1.1511,1.8897,1.6119,2.8646c1.9614,4.1492-0.0575,9.2435-2.1096,12.9412 c-6.7147,12.0994-18.6651,19.4265-30.364,26.0037c-7.2415,4.0712-14.2588,8.544-21.598,12.4361 c-6.4433,3.4171-13.0951,6.4129-19.5668,9.7719c-1.2678,0.658-0.7371,2.9506,0.7571,2.7952 c10.1682-1.0572,20.3277,0.1356,30.487,0.6719c10.4053,0.5493,20.8541-0.0434,31.2724,0.1682 c8.5113,0.1729,17.0024,0.6956,25.5021,1.1362c6.1032,0.3163,12.5942,0.4843,18.4264,2.496c1.4612,0.504,3.6801,1.359,4.085,3.0292 C298.1986,154.1654,296.6883,157.1034,295.1678,158.7894z M169.9699,154.6899c0.1155-0.6606,0.2139-1.3246,0.2807-1.9932 c0.1557-1.5573,0.1599-3.1409,0.041-4.7176c0.426-0.6125,0.3455-1.574-0.2433-2.0902c-0.3664-2.3336-1.0399-4.6152-2.0709-6.7268 c0.5234-0.7979,0.3914-1.9909-0.7927-2.1882c-0.1615-0.0269-0.3237-0.0448-0.4852-0.0707 c-2.582-3.9518-6.7625-7.3538-11.6816-7.1964c-0.3505,0.0112-0.6357,0.1216-0.859,0.2913 c-1.2524,0.1328-2.5124,0.2673-3.7582,0.4676c-0.4565-0.1097-0.961-0.0285-1.3375,0.2441c-1.189,0.2498-2.3558,0.5864-3.4786,1.0737 c-3.189,1.3842-6.3562,3.1166-8.9223,5.4784c-3.0995,2.8527-5.3885,6.5859-6.5843,10.6202 c-0.0807,0.2725-0.1573,0.5484-0.2294,0.8273c-0.9212,0.3221-1.8375,0.6661-2.7457,1.0462 c-0.7528,0.315-1.2731,0.9899-1.0477,1.8452c0.1864,0.7072,1.0985,1.3602,1.8452,1.0477c0.4401-0.1842,0.8855-0.3433,1.3286-0.5133 c-0.3357,3.2559,0.0585,6.6298,1.6761,9.4369c1.1123,1.9302,2.9068,3.4396,4.5755,4.8734c0.6791,0.5835,1.3953,1.1219,2.1318,1.6302 c0.0102,0.8378,0.017,1.6757,0.0336,2.5134c0.0383,1.9279,3.0385,1.9344,3,0c-0.005-0.251-0.0057-0.5021-0.0101-0.7531 c0.1491,0.0714,0.2926,0.1534,0.4435,0.2212c4.1594,1.87,8.7493,2.4708,13.2318,1.5557c2.1275-0.4343,4.2014-1.2291,6.0916-2.3325 c0.743,0.1113,1.5424-0.2531,1.6616-1.0992c1.1557-0.8448,2.2229-1.8064,3.1452-2.8963c1.894-2.2383,3.22-4.84,4.0577-7.6069 c0.2106-0.0489,0.4232-0.0892,0.6336-0.139C171.4543,157.1716,171.1758,155.1333,169.9699,154.6899z M141.7594,139.443 c2.2652-0.2361,4.5386-0.4072,6.8151-0.5102c0.0317,2.1395,0.068,4.2789,0.1151,6.4182c-2.5126,0.1271-5.0129,0.3486-7.4918,0.693 C141.3514,143.8414,141.5409,141.6412,141.7594,139.443z M155.0238,132.9056c0.2299-0.0253,0.431-0.0931,0.6058-0.1896 c0.7476,0.0356,1.4709,0.1753,2.1635,0.4064c-0.0155,0.0965-0.0254,0.1971-0.0226,0.3059c0.0212,0.8472,0.0468,1.6942,0.069,2.5413 c-2.1002-0.1106-4.2031-0.1456-6.3067-0.1155c-0.0081-0.8496-0.0158-1.6993-0.0194-2.5491 C152.688,133.1418,153.8707,133.0323,155.0238,132.9056z M157.9206,138.9597c0.0578,2.0854,0.1215,4.1707,0.188,6.2559 c-2.1421-0.0322-4.2861-0.0287-6.4263,0.0238c-0.0468-2.1328-0.0874-4.2656-0.119-6.3987 C153.684,138.8071,155.8042,138.8445,157.9206,138.9597z M164.8402,139.6435c1.0032,1.8236,1.684,3.7875,2.0837,5.8173 c-1.9294-0.0665-3.8684-0.1333-5.8133-0.1841c-0.0649-2.0327-0.1274-4.0655-0.184-6.0985 C162.2343,139.298,163.5387,139.4557,164.8402,139.6435z M148.7549,148.3524c0.0149,0.6332,0.0262,1.2664,0.0413,1.8995 c0.0603,2.5238,0.1166,5.0476,0.1668,7.5717c-2.7659,0.2184-5.5378,0.3528-8.3143,0.3794c0.0648-3.0327,0.1815-6.0638,0.3534-9.092 C143.5655,148.7291,146.1536,148.4893,148.7549,148.3524z M151.9444,156.7132c-0.0593-2.8253-0.1272-5.6505-0.1934-8.4756 c2.1493-0.0549,4.3033-0.0569,6.4561-0.0234c0.097,2.83,0.2065,5.6594,0.3272,8.4885c-2.1852,0.3395-4.3774,0.624-6.5755,0.8509 C151.9532,157.2734,151.9502,156.9933,151.9444,156.7132z M161.2092,148.2768c2.0416,0.0547,4.0774,0.1269,6.1038,0.197 c0.0425,0.6519,0.0687,1.3052,0.0611,1.9596c-0.0186,1.5987-0.2122,3.1819-0.5602,4.7148c-1.7607,0.386-3.5272,0.7393-5.3,1.0558 C161.4028,153.5621,161.3,150.9197,161.2092,148.2768z M162.5065,136.3511c-0.5538-0.0594-1.1071-0.1268-1.6614-0.1752 c-0.0123-0.4666-0.0261-0.9331-0.038-1.3997C161.4155,135.2487,161.9836,135.7807,162.5065,136.3511z M146.5478,134.6205 c0.6379-0.2955,1.2996-0.5283,1.9753-0.7189c0.0037,0.6804,0.0142,1.3607,0.0208,2.041c-1.7785,0.0773-3.5561,0.2015-5.3322,0.3644 C144.2972,135.6994,145.4164,135.1447,146.5478,134.6205z M137.7178,140.4357c0.3351-0.3544,0.6849-0.6893,1.0436-1.0125 c-0.2356,2.3674-0.4343,4.7375-0.5947,7.1102c-1.6292,0.3016-3.2454,0.6698-4.847,1.108 C134.2758,144.9722,135.7601,142.506,137.7178,140.4357z M137.9707,149.6283c-0.1558,2.851-0.2606,5.7046-0.3218,8.5595 c-1.6703-0.0272-3.341-0.0872-5.0118-0.1884c-0.666-2.2219-0.6269-4.7081-0.2242-6.9705 C134.2463,150.4651,136.0994,149.9988,137.9707,149.6283z M134.5471,161.4718c-0.1178-0.1293-0.2242-0.2654-0.3322-0.4006 c1.13,0.0526,2.2597,0.0986,3.39,0.1177c-0.0111,1.0409-0.0148,2.0819-0.0148,3.123 C136.5085,163.453,135.4873,162.5036,134.5471,161.4718z M140.5896,166.3434c-0.0114-1.7142-0.0032-3.4283,0.0151-5.1422 c2.8083-0.0245,5.6133-0.1564,8.4127-0.3745c0.0165,1.0311,0.0346,2.0622,0.0457,3.0934c0.008,0.7455,0.0145,1.4911,0.019,2.2366 c0.002,0.3314,0.0037,0.6627,0.005,0.994c0.0004,0.0991-0.0281,0.2953-0.0391,0.4845c-0.3418,0.3525-0.5457,0.8174-0.5692,1.301 C145.7071,168.6625,143.039,167.7421,140.5896,166.3434z M152.0533,168.9161c0.1663-0.8677,0.0341-1.8905,0.0288-2.7594 c-0.0065-1.0769-0.0172-2.1538-0.0307-3.2307c-0.0099-0.7868-0.0278-1.5735-0.0406-2.3603c2.2238-0.226,4.4407-0.5154,6.6511-0.8538 c0.1058,2.2922,0.2249,4.5838,0.3513,6.8751c-1.0657,0.6531-2.2213,1.2039-3.4861,1.6079 C154.3661,168.5658,153.2062,168.7926,152.0533,168.9161z M161.8976,164.3249c-0.0884-1.6988-0.1827-3.3973-0.2601-5.0966 c1.3821-0.2426,2.7616-0.4996,4.136-0.7832C164.8644,160.6548,163.5708,162.6633,161.8976,164.3249z" fill="inherit"/></g></svg>