<?xml version="1.0" encoding="UTF-8" standalone="no"?><svg xmlns="http://www.w3.org/2000/svg" xmlns:xlink="http://www.w3.org/1999/xlink" fill="#eaff45" height="86.7" preserveAspectRatio="xMidYMid meet" version="1" viewBox="9.3 4.2 75.0 86.7" width="75" zoomAndPan="magnify"><g id="change1_1"><path d="M17.5,41.7c0.5-0.2,0.8-0.7,0.8-1.2V9.3l4.6,6.3c0.3,0.6,1.1,0.8,1.7,0.5c0.6-0.3,0.8-1.1,0.5-1.7c-0.1-0.1-7-9.7-7-9.7 c-0.2-0.3-0.6-0.5-1-0.5c-0.6,0-0.9,0.3-1,0.5l0,0L9.7,14.9c-0.4,0.6-0.2,1.3,0.4,1.7c0,0,0,0,0,0c0.2,0.1,0.4,0.2,0.7,0.2 c0.4,0,0.8-0.2,1.1-0.6l4-6.4v27.4l-4.1-4.9c-0.4-0.5-1.2-0.6-1.8-0.1c-0.3,0.2-0.4,0.6-0.4,0.9v19.6c0,0.7,0.6,1.2,1.2,1.2 s1.2-0.6,1.2-1.2V36.5l4.1,4.9C16.5,41.8,17.1,41.9,17.5,41.7z" fill="inherit"/><path d="M75.8,40.1c-0.7,0-1.2,0.6-1.2,1.2v19.9l-4.1-4.9c-0.4-0.5-1.2-0.6-1.8-0.1c-0.3,0.2-0.4,0.6-0.4,0.9v28.3l-4.5-7.1 c-0.4-0.6-1.1-0.8-1.7-0.4c-0.6,0.4-0.8,1.1-0.4,1.7c0,0,0,0,0,0l6.8,10.7c0.2,0.4,0.6,0.6,1.1,0.6c0.6,0,0.9-0.3,1-0.5l0,0 l6.3-10.2c0.4-0.6,0.2-1.4-0.4-1.7c-0.6-0.4-1.4-0.2-1.7,0.4l0,0l-4,6.4V60.6l4.1,4.9c0.4,0.5,1.2,0.6,1.8,0.1 c0.3-0.2,0.4-0.6,0.4-0.9V41.4C77.1,40.7,76.5,40.1,75.8,40.1C75.9,40.1,75.8,40.1,75.8,40.1z" fill="inherit"/><path d="M58.6,70.8C44.9,78.1,28,72.9,20.7,59.2c-0.2-0.5-0.5-0.9-0.7-1.4c-1.7-3.7-2.6-7.6-2.5-11.7c0-0.7-0.6-1.2-1.2-1.2 c-0.7,0-1.2,0.6-1.2,1.2c0,4.4,0.9,8.7,2.8,12.7c7,15.3,25.1,22,40.3,15c0.6-0.3,1.1-0.5,1.7-0.8c0.6-0.3,0.9-1,0.7-1.6 S59.3,70.4,58.6,70.8z" fill="inherit"/><path d="M46.9,57.1h0.2c1.7,0,3.1-1.4,3.1-3.1V51c0-0.7-0.7-1.6-1.9-2.4L46.9,48V57.1z" fill="inherit"/><path d="M40.5,38.2v3c0,0.9,1,1.8,1.8,2.3l2.1,0.8v-9.3h-0.8C41.9,35.1,40.5,36.5,40.5,38.2z" fill="inherit"/><path d="M45.4,24.2c-12.2,0-22,9.8-22,22s9.8,22,22,22s22-9.8,22-22S57.6,24.2,45.4,24.2C45.4,24.2,45.4,24.2,45.4,24.2z M52.8,39.6c0,0.7-0.6,1.2-1.2,1.2s-1.2-0.6-1.2-1.2v-1.4c0-1.7-1.4-3.1-3.1-3.1h-0.2v10.2c0,0,2.7,1.1,2.8,1.1 c2.1,1.3,3.1,2.9,3.1,4.5v3c0,3.1-2.5,5.6-5.6,5.6h-0.2v2.8c0,0.7-0.6,1.2-1.2,1.2s-1.2-0.6-1.2-1.2v-2.8h-0.8 c-3.1,0-5.6-2.5-5.7-5.6v-1.4c0-0.7,0.6-1.2,1.2-1.2s1.2,0.6,1.2,1.2v1.4c0,1.7,1.4,3.1,3.2,3.1h0.8V47l-3.4-1.3 C39,44.4,38,42.9,38,41.2v-3c0-3.1,2.5-5.6,5.7-5.6h0.8V30c0-0.7,0.6-1.2,1.2-1.2s1.2,0.6,1.2,1.2v2.6h0.2c3.1,0,5.6,2.5,5.6,5.6 V39.6z" fill="inherit"/><path d="M83.1,40.5c-0.7,0-1.2,0.6-1.2,1.2v19.8c0,0.7,0.6,1.2,1.2,1.2s1.2-0.6,1.2-1.2V41.7C84.3,41,83.8,40.5,83.1,40.5z" fill="inherit"/><path d="M30,26.6c0.7,0,1.2-0.6,1.2-1.2v-3.2c13.3-7.8,30.4-3.5,38.2,9.8c1,1.7,1.9,3.6,2.5,5.5c0.2,0.5,0.6,0.9,1.2,0.9 c0.1,0,0.3,0,0.4-0.1c0.7-0.2,1-0.9,0.8-1.6c0,0,0,0,0,0c-5.2-16-22.4-24.7-38.4-19.4c-1.6,0.5-3.2,1.2-4.7,2v-3.6 c0-0.7-0.6-1.2-1.2-1.2s-1.2,0.6-1.2,1.2v9.7C28.8,26,29.3,26.6,30,26.6z" fill="inherit"/></g></svg>