<?xml version="1.0" encoding="UTF-8" standalone="no"?><svg xmlns="http://www.w3.org/2000/svg" xmlns:xlink="http://www.w3.org/1999/xlink" fill="#eaff45" height="67.5" preserveAspectRatio="xMidYMid meet" version="1" viewBox="2.8 2.3 66.4 67.5" width="66.4" zoomAndPan="magnify"><g id="change1_1"><path d="M 11.585938 2.25 C 6.773438 2.25 2.800781 6.222656 2.800781 11.035156 L 2.800781 60.964844 C 2.800781 65.777344 6.773438 69.75 11.585938 69.75 L 60.4375 69.75 C 65.246094 69.75 69.199219 65.777344 69.199219 60.964844 L 69.199219 11.035156 C 69.199219 6.222656 65.246094 2.25 60.4375 2.25 Z M 11.585938 8.113281 L 33.070312 8.113281 L 33.070312 33.078125 L 8.664062 33.078125 L 8.664062 11.035156 C 8.664062 9.367188 9.921875 8.113281 11.585938 8.113281 Z M 38.929688 8.113281 L 60.4375 8.113281 C 62.101562 8.113281 63.335938 9.367188 63.335938 11.035156 L 63.335938 60.964844 C 63.335938 62.632812 62.101562 63.886719 60.4375 63.886719 L 38.929688 63.886719 Z M 21.492188 13.347656 C 20.714844 13.355469 19.972656 13.675781 19.429688 14.230469 C 18.886719 14.785156 18.585938 15.535156 18.59375 16.3125 L 18.59375 18.605469 L 16.324219 18.605469 C 16.222656 18.601562 16.121094 18.601562 16.019531 18.605469 C 14.40625 18.695312 13.167969 20.074219 13.25 21.6875 C 13.332031 23.304688 14.707031 24.546875 16.324219 24.46875 L 18.59375 24.46875 L 18.59375 26.742188 C 18.59375 27.789062 19.152344 28.757812 20.058594 29.28125 C 20.96875 29.808594 22.085938 29.808594 22.992188 29.28125 C 23.902344 28.757812 24.460938 27.789062 24.457031 26.742188 L 24.457031 24.46875 L 26.75 24.46875 C 27.800781 24.472656 28.769531 23.914062 29.296875 23.003906 C 29.820312 22.097656 29.820312 20.976562 29.296875 20.070312 C 28.769531 19.160156 27.800781 18.601562 26.75 18.605469 L 24.457031 18.605469 L 24.457031 16.3125 C 24.46875 15.523438 24.15625 14.765625 23.597656 14.207031 C 23.042969 13.648438 22.28125 13.339844 21.492188 13.347656 Z M 44.535156 28.578125 C 42.914062 28.65625 41.667969 30.03125 41.742188 31.652344 C 41.820312 33.269531 43.199219 34.519531 44.816406 34.441406 L 56.996094 34.441406 C 58.042969 34.441406 59.011719 33.882812 59.535156 32.976562 C 60.058594 32.070312 60.058594 30.953125 59.535156 30.042969 C 59.011719 29.136719 58.042969 28.578125 56.996094 28.578125 L 44.816406 28.578125 C 44.722656 28.574219 44.628906 28.574219 44.535156 28.578125 Z M 44.816406 37.558594 C 43.195312 37.558594 41.882812 38.871094 41.882812 40.488281 C 41.882812 42.109375 43.195312 43.421875 44.816406 43.421875 L 56.996094 43.421875 C 58.613281 43.421875 59.925781 42.109375 59.925781 40.488281 C 59.925781 38.871094 58.613281 37.558594 56.996094 37.558594 Z M 8.664062 38.941406 L 33.070312 38.941406 L 33.070312 63.886719 L 11.585938 63.886719 C 9.921875 63.886719 8.664062 62.632812 8.664062 60.964844 Z M 15.4375 48.417969 C 14.386719 48.417969 13.417969 48.976562 12.894531 49.882812 C 12.371094 50.789062 12.371094 51.910156 12.894531 52.816406 C 13.417969 53.722656 14.386719 54.28125 15.4375 54.28125 L 27.617188 54.28125 C 28.664062 54.28125 29.632812 53.722656 30.15625 52.816406 C 30.683594 51.910156 30.683594 50.789062 30.15625 49.882812 C 29.632812 48.976562 28.664062 48.417969 27.617188 48.417969 L 15.4375 48.417969" fill="inherit"/></g></svg>