<?xml version="1.0" encoding="UTF-8" standalone="no"?><svg xmlns="http://www.w3.org/2000/svg" xmlns:xlink="http://www.w3.org/1999/xlink" fill="#eaff45" height="468.1" preserveAspectRatio="xMidYMid meet" version="1" viewBox="-3.4 0.0 405.8 468.1" width="405.8" zoomAndPan="magnify"><g id="change1_1"><path d="M397.669,358.312c-5.779-33.352-23.831-73.526-52.203-116.182c-25.868-38.889-58.958-78.054-95.806-113.453V99.627 l41.128-65.251c1.591-2.523,1.534-5.75-0.144-8.217C288.824,23.481,270.796,0,199.532,0S110.24,23.481,108.42,26.159 c-1.678,2.467-1.734,5.693-0.144,8.217l41.129,65.253v29.049c-36.849,35.398-69.938,74.563-95.807,113.453 C25.226,284.785,7.175,324.96,1.395,358.312c-4.754,27.433,2.767,55.343,20.635,76.574c17.74,21.078,43.724,33.167,71.288,33.167 h212.428c27.564,0,53.547-12.089,71.286-33.167C394.901,413.655,402.423,385.744,397.669,358.312z M212.774,104.96 c0.004,0,0.009,0.001,0.013,0.001c0.007,0,0.014-0.001,0.021-0.001h21.852v19.402h-70.255V104.96H212.774z M199.532,15 c47.3,0,67.886,10.978,75.297,16.564L238.022,89.96h-16.488l5.646-36.329c0.636-4.093-2.166-7.927-6.259-8.563 c-4.103-0.637-7.929,2.167-8.563,6.259l-6.004,38.632h-45.312l-36.807-58.396C131.646,25.978,152.232,15,199.532,15z M365.556,425.228c-14.883,17.684-36.683,27.825-59.811,27.825H93.318c-23.128,0-44.929-10.143-59.812-27.826 c-15.011-17.836-21.328-41.293-17.332-64.354c10.573-61.013,66.885-147.719,143.739-221.51h79.237 c76.855,73.792,133.165,160.498,143.738,221.51C386.885,383.935,380.568,407.391,365.556,425.228z" fill="inherit"/><path d="M207.031,308.428v-48.873h22.616c4.143,0,7.5-3.357,7.5-7.5s-3.357-7.5-7.5-7.5h-22.616V231.27c0-4.142-3.357-7.5-7.5-7.5 s-7.5,3.358-7.5,7.5v13.536c-23.944,2.185-42.627,18.865-42.627,39.062s18.683,36.876,42.627,39.062v48.874h-35.127 c-4.143,0-7.5,3.357-7.5,7.5s3.357,7.5,7.5,7.5h35.127v11.586c0,4.143,3.357,7.5,7.5,7.5s7.5-3.357,7.5-7.5v-11.836 c23.945-2.185,42.629-18.865,42.629-39.062S230.976,310.613,207.031,308.428z M164.404,283.867 c0-12.064,11.98-22.099,27.627-23.987v47.975C176.384,305.966,164.404,295.931,164.404,283.867z M207.031,371.479v-47.977 c15.648,1.888,27.629,11.924,27.629,23.989C234.66,359.555,222.679,369.591,207.031,371.479z" fill="inherit"/></g></svg>